<?xml version="1.0" standalone="no"?>
<!DOCTYPE svg PUBLIC "-//W3C//DTD SVG 20010904//EN"
 "http://www.w3.org/TR/2001/REC-SVG-20010904/DTD/svg10.dtd">
<svg version="1.0" xmlns="http://www.w3.org/2000/svg"
 width="225.000000pt" height="225.000000pt" viewBox="0 0 225.000000 225.000000"
 preserveAspectRatio="xMidYMid meet">

<g transform="translate(0.000000,225.000000) scale(0.100000,-0.100000)"
fill="#000000" stroke="none">
<path fill="#fff" d="M0 2010 l0 -140 1125 0 1125 0 0 140 0 140 -1125 0 -1125 0 0 -140z"/>
<path fill="#fff" d="M0 1125 l0 -555 1125 0 1125 0 0 555 0 555 -1125 0 -1125 0 0 -555z
m1323 332 c35 -16 56 -31 52 -37 -4 -6 -28 -42 -54 -79 -46 -67 -48 -68 -72
-55 -13 7 -43 13 -67 14 -114 1 -197 -95 -179 -207 18 -110 154 -179 244 -124
l31 20 73 -62 72 -61 -34 -28 c-68 -57 -116 -73 -214 -73 -77 0 -98 4 -147 27
-79 37 -142 98 -181 177 -29 59 -32 74 -32 156 0 76 4 98 26 146 47 99 128
171 232 205 66 22 181 13 250 -19z"/>
<path fill="#fff" d="M0 240 l0 -140 1125 0 1125 0 0 140 0 140 -1125 0 -1125 0 0 -140z"/>
</g>
</svg>
