<?xml version="1.0" standalone="no"?>
<!DOCTYPE svg PUBLIC "-//W3C//DTD SVG 20010904//EN"
 "http://www.w3.org/TR/2001/REC-SVG-20010904/DTD/svg10.dtd">
<svg version="1.0" xmlns="http://www.w3.org/2000/svg"
 width="225.000000pt" height="225.000000pt" viewBox="0 0 900.000000 900.000000"
 preserveAspectRatio="xMidYMid meet">
  <g fill="#ffff00" stroke="none">
    
    <path
       d="m 323.74291,730.12113 c -26.9423,-4.27752 -32.56441,-5.34727 -46.24898,-8.8001 -8.48374,-2.14059 -34.75125,-10.3771 -38.78948,-12.16294 -2.05136,-0.90718 -5.07247,-2.16249 -6.71356,-2.7896 C 176.64992,685.22148 118.56443,641.47876 79.541214,591.56249 46.538842,549.34775 20.98812,494.03014 10.276337,441.60324 3.1955067,406.9474 0.98532917,357.52823 5.1053422,325.98077 c 3.7412837,-28.64749 8.2097438,-48.3518 17.2127468,-75.90205 5.3903,-16.49495 6.54843,-19.24744 18.012271,-42.80911 19.241997,-39.54813 38.363649,-66.23909 69.95122,-97.6414 30.49877,-30.319897 62.81309,-53.390249 98.48138,-70.309409 14.83511,-7.03699 17.45197,-8.209078 25.83876,-11.573154 22.96719,-9.212511 51.44205,-16.851168 77.95192,-20.9113596 32.73944,-5.0142979 58.39523,-5.7065252 88.76822,-2.3950853 29.47028,3.2130195 29.57143,3.2298694 54.45446,9.0705719 11.33893,2.661549 39.04882,11.526947 46.24898,14.796727 2.46164,1.117894 7.49682,3.231281 11.18927,4.696411 13.79973,5.475595 38.23765,18.900662 55.75517,30.629319 9.95171,6.663054 18.4297,12.544207 18.83998,13.06923 0.41027,0.525021 3.76705,3.279941 7.45951,6.122041 39.82029,30.649838 77.60771,77.768428 99.88543,124.550988 12.64216,26.54818 15.3978,33.64696 22.51953,58.01259 18.97521,64.91989 19.63568,131.63873 1.95857,197.84875 -11.38223,42.63238 -34.07985,88.98211 -60.88353,124.32744 -28.26225,37.26867 -64.01294,69.105 -105.25328,93.72902 -15.92718,9.50989 -37.29858,20.64799 -39.61867,20.64799 -0.38238,0 -3.54117,1.26848 -7.01955,2.81885 -11.23905,5.00941 -22.71094,9.19254 -33.17858,12.09827 -24.19449,6.71621 -35.01223,8.99867 -63.52807,13.40396 -11.72681,1.81162 -74.75857,1.70933 -86.40817,-0.14023 z m 41.77328,-43.84583 c 0,-14.25596 0.37838,-17.15688 2.23786,-17.15688 1.85948,0 2.23785,2.90092 2.23785,17.15688 v 17.15689 l 9.3244,-0.0119 c 29.90835,-0.0382 78.92973,-10.36313 113.01164,-23.80255 14.61184,-5.76185 38.99122,-18.24051 39.81126,-20.37753 0.43901,-1.14401 -0.39991,-3.90855 -1.86425,-6.14342 -1.46434,-2.23485 -4.90926,-8.22341 -7.65536,-13.30789 -8.12729,-15.04782 -2.89262,-12.39528 6.27321,3.1788 4.60145,7.81854 8.69311,14.21552 9.09257,14.21552 1.17344,0 22.78832,-14.67846 34.76081,-23.60574 19.546,-14.57447 41.48675,-36.90369 65.35933,-66.51656 4.38656,-5.44136 18.33174,-27.45886 18.33174,-28.9433 0,-1.31095 -6.06687,-5.19027 -21.55309,-13.78162 -4.65502,-2.58248 -6.76515,-5.89975 -3.75287,-5.89975 0.98833,0 7.77587,3.45064 15.08344,7.66809 7.30756,4.21744 13.51064,7.40638 13.78461,7.08654 1.16745,-1.36292 11.61721,-22.24963 15.59236,-31.16556 9.44914,-21.19367 19.14421,-53.58445 22.77407,-76.08704 3.14361,-19.48821 5.49249,-54.38963 3.73858,-55.55054 -0.91078,-0.60285 -8.53737,-1.10637 -16.94797,-1.11893 -9.18484,-0.0137 -15.29201,-0.61866 -15.29201,-1.51474 0,-0.90369 6.43556,-1.4919 16.32288,-1.4919 8.97759,0 16.62251,-0.50352 16.98873,-1.11893 0.70448,-1.18384 -2.85926,-46.75733 -4.05404,-51.84362 -0.38549,-1.6411 -1.49517,-7.34763 -2.46592,-12.68118 -4.62679,-25.42049 -15.00218,-55.57869 -28.62506,-83.2046 -8.70434,-17.65155 -7.34562,-17.27289 -24.54347,-6.84013 -5.89156,3.574 -11.39062,6.49817 -12.22017,6.49817 -3.41859,0 -2.85984,-2.77033 0.94738,-4.6971 10.73479,-5.43272 24.22222,-14.00229 24.2194,-15.38837 -0.002,-0.85092 -3.86203,-7.31578 -8.57844,-14.36637 -25.48251,-38.09395 -59.74841,-72.03983 -98.61917,-97.698119 -12.72094,-8.396999 -10.77638,-9.300075 -22.16433,10.293328 -4.65705,8.012621 -7.2639,11.186761 -8.32006,10.130601 -1.05616,-1.05616 -0.29484,-3.41671 2.42982,-7.533954 2.18232,-3.297732 3.96788,-6.410152 3.96788,-6.916486 0,-0.506335 1.29807,-2.743585 2.88461,-4.971669 1.58653,-2.228084 3.29574,-5.689148 3.79823,-7.691252 0.85638,-3.412086 -0.28261,-4.216454 -18.17661,-12.836546 C 473.64339,46.120601 431.22227,35.044089 388.26771,32.655973 L 369.9919,31.639905 v 16.628934 c 0,13.786673 -0.38249,16.628934 -2.23785,16.628934 -1.85536,0 -2.23786,-2.842261 -2.23786,-16.628934 V 31.639905 l -18.27581,1.016068 c -29.85032,1.659568 -55.26907,6.525892 -86.90334,16.637307 -19.16596,6.126115 -57.43825,24.118252 -57.43825,27.002227 0,1.043947 2.01406,5.313955 4.4757,9.488906 2.46164,4.174951 4.49065,8.064794 4.50889,8.644094 0.0183,0.579301 1.34603,2.731665 2.95063,4.783031 3.40512,4.353192 3.70794,5.967992 1.11893,5.966632 -1.02569,-5.4e-4 -5.47183,-6.082984 -9.88033,-13.51654 -5.2847,-8.911021 -8.70565,-13.250692 -10.04144,-12.738105 -3.89557,1.494873 -28.39248,18.518866 -39.43383,27.404335 -13.69793,11.02332 -32.36178,29.19948 -43.24652,42.11647 -4.49442,5.33355 -8.53969,10.03305 -8.9895,10.44332 -0.44981,0.41028 -2.43153,3.0957 -4.40383,5.96761 -1.972299,2.87192 -4.034869,5.55734 -4.583488,5.96761 -1.96155,1.4669 -16.303152,24.28663 -16.303152,25.94085 0,1.99957 0.90775,2.60036 21.53234,14.25117 4.66141,2.63322 6.77548,6.05697 3.74001,6.05697 -1.0068,0 -7.408002,-3.35678 -14.224891,-7.45951 -6.816891,-4.10273 -13.054493,-7.45952 -13.86134,-7.45952 -1.708303,0 -14.178571,24.41505 -20.135648,39.42279 -14.269453,35.94922 -23.299459,78.45786 -23.299459,109.68191 v 15.00462 h 16.410932 c 13.592892,0 16.410931,0.38428 16.410931,2.23785 0,1.85357 -2.818039,2.23785 -16.410931,2.23785 H 32.821862 v 14.67021 c 0,8.06862 0.630941,18.3068 1.402089,22.75152 0.771148,4.44472 2.205215,13.11648 3.186812,19.27058 2.803963,17.57938 12.271107,52.7433 15.042289,55.87176 0.690498,0.77952 1.25545,2.29738 1.25545,3.37305 0,3.97189 20.33632,46.68029 22.227605,46.68029 0.651537,0 6.826403,-3.35629 13.721926,-7.45842 6.895521,-4.10214 13.432457,-7.45892 14.526517,-7.45952 3.57096,-0.002 1.00688,3.26702 -5.405798,6.89191 -3.454428,1.95268 -9.13404,5.16064 -12.621363,7.1288 -3.487323,1.96817 -6.519756,4.48575 -6.738739,5.59464 -0.344943,1.74672 8.797113,17.09009 14.090658,23.64875 0.993403,1.23082 5.032544,6.60059 8.975872,11.93283 9.18454,12.41953 36.74006,40.91577 51.18081,52.92808 9.91999,8.2518 41.9245,30.62087 43.81074,30.62087 0.39716,0 4.17979,-6.04221 8.40586,-13.42713 4.22607,-7.38492 8.6754,-13.42712 9.88742,-13.42712 2.19362,0 -0.1663,5.10738 -9.82901,21.27219 -1.84349,3.08397 -2.96707,6.6098 -2.49685,7.83517 0.91677,2.38906 20.50246,12.43684 37.38552,19.17937 36.04516,14.39525 80.68664,24.11576 113.12428,24.63236 l 11.56224,0.18415 z"
       id="path1" />
    <path
       
       d="m 268.91549,454.22054 c -2.66678,-3.0363 -4.84869,-6.18425 -4.84869,-6.99544 0,-0.81119 4.19598,-5.16782 9.32439,-9.68137 9.53013,-8.38756 33.17381,-28.83416 39.94167,-34.54081 2.06966,-1.74512 8.76825,-7.53678 14.88576,-12.87033 6.11752,-5.33355 12.81611,-11.13198 14.88577,-12.88541 11.29438,-9.56865 12.62469,-11.00025 11.22253,-12.07711 -0.82054,-0.63018 -5.16678,-5.50959 -9.6583,-10.84315 -4.49152,-5.33355 -8.52384,-10.03304 -8.9607,-10.44332 -0.43686,-0.41027 -4.4784,-5.10976 -8.9812,-10.44332 -4.50279,-5.33355 -8.54934,-10.03304 -8.99231,-10.44332 -0.44298,-0.41027 -8.82259,-10.14494 -18.62136,-21.63259 -9.79877,-11.48765 -18.8395,-21.89457 -20.09051,-23.12648 -1.25101,-1.23192 -5.94944,-6.60277 -10.44097,-11.93523 -4.49152,-5.33245 -8.51965,-10.03105 -8.95141,-10.44132 -0.43176,-0.41028 -4.4599,-5.10977 -8.95142,-10.44332 -4.49152,-5.33356 -8.85534,-10.20089 -9.69737,-10.8163 -1.04075,-0.76065 -1.0246,-1.47721 0.0504,-2.23785 0.86977,-0.61541 4.09512,-3.07261 7.16745,-5.46045 4.75324,-3.69425 5.87243,-4.02788 7.50692,-2.23785 2.83739,3.1074 24.71157,28.35422 28.34984,32.72093 3.61106,4.33405 22.15701,25.70613 23.27433,26.82099 0.41118,0.41027 4.42248,5.10977 8.914,10.44332 4.49152,5.33355 8.52383,10.03305 8.9607,10.44332 0.43686,0.41027 4.4784,5.10977 8.98119,10.44332 4.5028,5.33355 8.52676,10.03305 8.94214,10.44332 0.41538,0.41027 4.77901,5.44544 9.69695,11.18927 4.91794,5.74383 11.38949,13.12875 14.38122,16.41093 12.72957,13.96544 13.3176,14.93076 10.52072,17.27115 -12.41734,10.39062 -41.45932,35.00546 -42.04912,35.63916 -0.41028,0.44081 -5.78113,5.16381 -11.93523,10.49556 -6.15409,5.33175 -11.52494,10.0305 -11.93522,10.44168 -0.41027,0.41117 -5.10976,4.42248 -10.44332,8.914 -5.33355,4.49152 -10.03304,8.53463 -10.44332,8.98469 -0.41027,0.45006 -4.43841,3.87729 -8.95141,7.61609 l -8.20547,6.79778 z"
       id="path2" />
    <path
       d="M 305.84008,726.41913 C 230.36361,712.98403 163.96895,678.07976 108.90891,622.8906 74.038144,587.93808 48.442897,548.68251 29.031034,500.38144 12.141992,458.35773 6.0063489,426.35013 4.8941849,374.46761 4.062141,335.65272 5.3927336,320.98607 12.744424,287.93725 24.047891,237.12359 50.787513,180.80009 82.156061,141.73077 94.720729,126.08155 124.28695,96.582479 140.23887,83.779871 203.94321,32.65237 285.24429,3.7253885 365.21963,3.7315663 453.68973,3.7384003 535.87612,33.74716 603.55007,90.753294 671.90146,148.33008 716.80701,232.07039 728.8902,324.48887 c 3.4122,26.09829 2.32541,77.01065 -2.18151,102.19534 -6.92728,38.70979 -16.05984,66.76459 -33.02443,101.44939 -28.79711,58.87692 -71.26029,106.84265 -127.23703,143.72494 -43.66462,28.77 -83.81593,44.5855 -138.74341,54.65068 -18.97245,3.4766 -23.84064,3.76598 -61.16801,3.63611 -35.84482,-0.12471 -42.89425,-0.55748 -60.69573,-3.7262 z m 59.82366,-31.56539 c 0.0811,-4.71814 0.60118,-12.2709 1.15563,-16.7839 l 1.0081,-8.20547 1.07161,10.44332 c 0.58938,5.74383 1.07638,13.3857 1.08222,16.98193 l 0.0106,6.53861 19.02176,-0.79832 c 28.08943,-1.17889 58.9714,-7.40139 91.66014,-18.46891 18.26156,-6.18286 48.608,-20.90405 51.01832,-24.7492 1.28953,-2.05714 0.59557,-4.46643 -3.35775,-11.65752 -6.7559,-12.289 -5.00811,-12.87917 2.21474,-0.74785 3.18448,5.34855 6.65947,9.73637 7.72221,9.7507 2.30619,0.0311 20.28342,-11.89547 36.83771,-24.43914 23.59144,-17.87592 60.45891,-58.19592 74.59665,-81.58241 3.89722,-6.44673 6.70641,-12.71016 6.24266,-13.91871 -0.46376,-1.20854 -6.28371,-5.33543 -12.93321,-9.17086 -6.6495,-3.83542 -11.75786,-7.30565 -11.3519,-7.7116 0.40596,-0.40596 6.41736,2.35766 13.35868,6.14138 6.94131,3.7837 13.393,6.87947 14.33709,6.87947 2.25214,0 19.45642,-35.83009 25.43067,-52.96255 11.25164,-32.26662 17.89656,-68.68456 17.89656,-98.08346 v -13.0633 h -10.53137 c -6.64099,0 -10.19075,-0.55112 -9.60931,-1.4919 0.50712,-0.82055 5.66132,-1.4919 11.45377,-1.4919 h 10.53173 L 703.54281,353.208 c -3.18181,-42.02977 -7.40958,-64.84602 -17.36634,-93.72173 -7.14713,-20.72742 -20.2121,-50.18524 -24.1167,-54.37635 -3.51151,-3.76914 -5.76619,-3.2027 -19.47195,4.89198 -5.56581,3.2872 -10.46581,5.63057 -10.88887,5.2075 -0.42308,-0.42307 4.80213,-4.12196 11.61157,-8.21976 7.60642,-4.57741 12.54817,-8.547 12.81486,-10.29386 0.96134,-6.29701 -27.99466,-43.95499 -52.65583,-68.48018 -15.50311,-15.41761 -48.13799,-41.546263 -59.60411,-47.721182 -6.37286,-3.432008 -7.73063,-2.442364 -15.94439,11.621552 -3.31183,5.670627 -6.35885,9.97288 -6.77118,9.56056 -0.41232,-0.41232 1.6981,-4.926148 4.68983,-10.030737 2.99171,-5.104587 5.81572,-11.162238 6.27555,-13.461443 0.813,-4.064942 0.32672,-4.425914 -17.61075,-13.072583 C 473.10242,45.154076 434.85186,35.505512 380.8082,31.387378 l -10.8163,-0.824203 -0.0106,6.351004 c -0.006,3.493051 -0.49284,11.050497 -1.08222,16.794323 l -1.07161,10.44332 -1.0081,-8.205466 c -0.55445,-4.513006 -1.07448,-12.022169 -1.15563,-16.687027 l -0.14755,-8.481563 -13.8001,0.782861 c -35.57921,2.018361 -76.7864,10.694189 -106.19743,22.358982 -21.56917,8.554602 -42.61987,19.809411 -42.61987,22.786809 0,1.419283 2.08608,6.432066 4.63576,11.13952 2.54966,4.707451 4.34689,8.847861 3.99385,9.200906 -0.35306,0.353046 -3.41953,-3.714963 -6.81442,-9.040021 -3.39488,-5.325059 -7.08031,-9.681924 -8.18986,-9.681924 -2.17561,0 -21.57578,12.897513 -37.03389,24.620671 -30.77116,23.33629 -83.487796,86.0754 -79.988115,95.19542 0.495469,1.29118 6.341353,5.48566 12.990852,9.32109 6.649501,3.83543 11.746353,7.31716 11.326343,7.73718 -0.42002,0.42001 -6.290644,-2.36773 -13.045838,-6.19497 -6.755195,-3.82725 -13.326648,-6.76667 -14.603227,-6.53207 -1.27658,0.23462 -6.045172,7.82206 -10.596872,16.86099 -19.901015,39.52017 -32.751511,90.3615 -32.751511,129.57711 v 17.35183 l 7.83249,0.013 c 4.30787,0.007 11.52495,0.48423 16.037956,1.06022 l 8.205465,1.04724 -6.713562,1.06706 c -3.69246,0.58688 -10.90954,1.11682 -16.037956,1.17764 l -9.324393,0.11058 v 17.64192 c 0,26.45861 7.782789,65.41149 19.389599,97.04501 6.3798,17.38768 20.522642,46.39057 23.104892,47.38148 1.179637,0.45267 7.248267,-1.99414 13.485845,-5.43736 6.237577,-3.44322 11.674762,-5.92669 12.082642,-5.51882 0.40787,0.40787 -3.158548,2.9319 -7.925372,5.60896 -10.415728,5.84947 -13.888618,8.68174 -13.888618,11.32669 0,3.06073 8.395698,16.21689 20.523344,32.16035 13.817406,18.16489 45.097156,49.96613 60.785356,61.79878 16.79758,12.66939 34.57578,24.4435 36.85723,24.40975 1.06274,-0.0157 4.50821,-4.43304 7.6566,-9.81628 3.1484,-5.38325 6.07372,-9.43836 6.50072,-9.01137 0.42701,0.427 -1.30976,4.42254 -3.85947,8.87899 -7.40974,12.95086 -7.27987,13.17281 13.63997,23.31152 23.63462,11.45443 53.42457,21.30646 81.18411,26.84895 26.55126,5.30124 28.3697,5.52261 47.86548,5.827 l 15.292,0.23877 z"
       id="path3" />
    <path
       
       d="m 269.36849,453.25087 c -3.02883,-3.79591 -3.87517,-5.98878 -2.90499,-7.52685 0.75297,-1.19371 20.44171,-18.72177 43.75275,-38.95125 23.31104,-20.22947 43.03054,-37.83845 43.82111,-39.13106 1.14245,-1.86796 -10.26883,-15.89224 -55.61333,-68.34791 -62.73391,-72.57216 -58.2135,-65.69981 -47.94295,-72.88735 3.46181,-2.42265 3.69024,-2.35901 7.45952,2.07819 9.15251,10.77435 87.44456,101.35303 103.50058,119.74327 13.94053,15.9672 17.16768,20.47603 15.66498,21.88642 -1.04093,0.97699 -13.97701,12.10187 -28.74685,24.72195 -14.76984,12.62008 -36.61182,31.32651 -48.53773,41.56984 -11.92592,10.24333 -22.69499,19.42907 -23.93127,20.41274 -1.8511,1.47285 -3.00208,0.84318 -6.52182,-3.56799 z"
       id="path4" />
  </g>
</svg>
