<?xml version="1.0" standalone="no"?>
<!DOCTYPE svg PUBLIC "-//W3C//DTD SVG 20010904//EN"
 "http://www.w3.org/TR/2001/REC-SVG-20010904/DTD/svg10.dtd">
<svg version="1.0" xmlns="http://www.w3.org/2000/svg"
 width="518.000000pt" height="394.000000pt" viewBox="0 0 518.000000 394.000000"
 preserveAspectRatio="xMidYMid meet">

<g transform="translate(0.000000,394.000000) scale(0.100000,-0.100000)"
fill="#ffdd11" stroke="none">
<path d="M2400 3839 c-106 -23 -189 -53 -300 -110 l-76 -39 -321 0 -322 0
-113 -49 -113 -50 -562 -568 -561 -568 371 -372 372 -373 272 272 273 273 0
-1098 0 -1097 1270 0 1270 0 0 1097 0 1098 273 -273 272 -272 372 373 371 372
-562 568 -562 568 -113 50 -112 49 -322 0 -321 0 -93 46 c-240 117 -443 149
-663 103z m315 -144 c85 -15 271 -81 308 -109 40 -31 -25 -119 -120 -163 -105
-48 -325 -68 -483 -42 -144 23 -256 93 -275 172 -6 23 -2 28 44 52 70 35 219
84 289 94 89 13 142 12 237 -4z m-725 -162 c0 -5 3 -18 6 -30 l6 -23 -265 0
-266 0 -93 -41 -93 -40 -232 -231 -231 -231 31 -26 30 -25 216 222 216 222 93
40 93 40 273 0 272 0 29 -30 29 -30 -283 0 -282 0 -99 -42 -99 -43 -212 -212
-212 -211 29 -26 29 -25 205 204 c202 201 206 205 296 245 l92 40 325 0 c270
0 332 -3 368 -16 171 -61 487 -61 658 0 36 13 98 16 370 16 l326 0 90 -40 c88
-40 94 -44 295 -245 l205 -204 29 25 29 26 -212 211 -211 212 -103 43 -102 42
-279 0 -280 0 29 30 29 30 271 0 272 0 94 -40 94 -41 216 -222 216 -222 30 26
31 26 -231 231 -232 231 -93 40 -93 41 -264 0 c-146 0 -265 3 -265 8 0 4 3 17
6 30 l6 22 285 0 284 0 83 -36 83 -36 392 -392 391 -391 -265 -265 -265 -265
-240 240 -240 240 0 -1058 0 -1057 -1110 0 -1110 0 0 1057 0 1058 -240 -240
-240 -240 -265 265 -265 265 392 392 c391 391 392 392 472 427 l81 34 288 1
c158 1 287 -2 287 -6z m-1282 -1146 l263 -263 -29 -27 -28 -27 -264 265 -264
264 24 26 c13 14 26 25 29 25 4 0 124 -118 269 -263z m4062 238 l24 -26 -264
-264 -264 -265 -28 27 -29 27 263 263 c145 145 265 263 269 263 3 0 16 -11 29
-25z m-4142 -318 l262 -262 -58 -58 -57 -57 -265 265 -265 265 55 55 c30 30
57 55 60 55 3 0 123 -118 268 -263z m4252 208 l55 -55 -265 -265 -265 -265
-57 57 -58 58 262 262 c145 145 265 263 268 263 3 0 30 -25 60 -55z m-1180
-2075 l0 -40 -1110 0 -1110 0 0 40 0 40 1110 0 1110 0 0 -40z m0 -155 l0 -75
-1110 0 -1110 0 0 75 0 75 1110 0 1110 0 0 -75z"/>
</g>
</svg>
