<?xml version="1.0" standalone="no"?>
<!DOCTYPE svg PUBLIC "-//W3C//DTD SVG 20010904//EN"
 "http://www.w3.org/TR/2001/REC-SVG-20010904/DTD/svg10.dtd">
<svg version="1.0" xmlns="http://www.w3.org/2000/svg"
 width="186.000000pt" height="105.000000pt" viewBox="0 0 186.000000 105.000000"
 preserveAspectRatio="xMidYMid meet">

<g transform="translate(0.000000,105.000000) scale(0.100000,-0.100000)"
fill="#000000" stroke="none">
<path d="M690 977 c-146 -34 -257 -135 -299 -273 l-19 -59 -60 -7 c-112 -12
-194 -67 -244 -161 -19 -34 -23 -58 -23 -127 0 -73 4 -92 27 -136 15 -29 46
-68 69 -87 80 -69 54 -67 843 -67 695 0 712 1 744 20 20 12 30 25 26 32 -4 7
-3 8 4 4 22 -13 52 54 52 115 0 88 -56 155 -138 166 -40 5 -42 7 -57 60 -44
152 -168 241 -320 230 -38 -3 -82 -8 -96 -12 -23 -6 -27 -3 -39 36 -23 68 -83
152 -138 193 -94 69 -225 97 -332 73z m238 -441 c2 -10 -3 -23 -11 -29 -13
-10 -24 -69 -26 -142 -2 -52 14 -147 25 -152 23 -9 17 -43 -8 -43 -41 0 -58
27 -58 97 0 47 -4 65 -15 69 -8 4 -15 16 -15 29 0 13 7 25 15 29 11 4 15 21
15 65 0 53 3 62 27 81 30 23 46 22 51 -4z m575 -4 c13 -11 17 -31 17 -79 0
-47 4 -63 14 -63 23 0 27 -39 5 -50 -16 -9 -19 -22 -19 -74 0 -66 -13 -90 -55
-98 -24 -4 -33 29 -12 45 12 10 29 105 26 152 -4 89 -13 137 -25 142 -14 5
-19 34 -8 46 8 8 35 -2 57 -21z m-903 -49 c28 -36 26 -88 -5 -118 -18 -19 -35
-25 -70 -25 l-45 0 0 -50 c0 -47 -2 -50 -25 -50 l-25 0 0 134 0 135 38 3 c72
6 111 -3 132 -29z m110 -109 l0 -134 -25 0 -25 0 0 134 c0 120 2 135 18 139 9
2 20 2 25 0 4 -2 7 -65 7 -139z m-361 13 c24 -67 46 -128 49 -134 3 -9 -5 -13
-22 -13 -20 0 -29 7 -37 28 -8 25 -14 27 -59 27 -46 0 -50 -2 -56 -27 -4 -23
-11 -28 -35 -28 l-28 0 30 83 c17 45 37 100 45 122 8 22 16 46 19 53 2 6 15
12 27 12 20 0 28 -15 67 -123z m725 37 c19 -18 21 -45 5 -61 -8 -8 -8 -17 0
-31 26 -48 0 -59 -27 -12 -21 37 -30 38 -34 3 -2 -14 -9 -28 -15 -31 -10 -3
-13 16 -13 72 l0 76 34 0 c19 0 42 -7 50 -16z m126 1 c0 -10 -10 -15 -30 -15
-20 0 -30 -5 -30 -15 0 -9 9 -15 25 -15 16 0 25 -6 25 -15 0 -9 -9 -15 -25
-15 -16 0 -25 -6 -25 -15 0 -10 10 -15 30 -15 20 0 30 -5 30 -15 0 -11 -12
-15 -45 -15 l-45 0 0 75 0 75 45 0 c33 0 45 -4 45 -15z m220 0 c0 -8 -9 -15
-20 -15 -18 0 -20 -7 -20 -60 0 -47 -3 -60 -15 -60 -12 0 -15 13 -15 59 l0 59
-50 -1 c-34 -1 -50 -5 -50 -14 0 -7 9 -13 19 -13 23 0 51 -25 51 -45 0 -39
-74 -61 -100 -30 -13 16 -11 17 32 19 31 1 39 19 11 25 -28 5 -43 21 -43 47 0
33 20 40 115 42 70 2 85 -1 85 -13z"/>
<path d="M480 429 l0 -40 43 3 c35 3 43 7 45 26 5 33 -15 52 -54 52 -33 0 -34
-1 -34 -41z"/>
<path d="M272 410 c-26 -67 -26 -70 7 -70 34 0 36 7 16 60 l-13 35 -10 -25z"/>
<path d="M1020 396 c0 -10 9 -16 21 -16 24 0 21 23 -4 28 -10 2 -17 -3 -17
-12z"/>
</g>
</svg>
