<?xml version="1.0" standalone="no"?>
<!DOCTYPE svg PUBLIC "-//W3C//DTD SVG 20010904//EN"
 "http://www.w3.org/TR/2001/REC-SVG-20010904/DTD/svg10.dtd">
<svg version="1.0" xmlns="http://www.w3.org/2000/svg"
 width="357.000000pt" height="111.000000pt" viewBox="0 0 357.000000 111.000000"
 preserveAspectRatio="xMidYMid meet">

<g transform="translate(0.000000,111.000000) scale(0.100000,-0.100000)"
fill="#323232" stroke="none">
<path d="M135 1007 c-3 -6 -4 -181 -3 -387 l3 -375 270 -3 270 -2 105 135 c57
74 107 135 111 135 3 0 49 -55 102 -123 53 -68 103 -129 111 -136 38 -31 9 13
-89 139 -58 73 -105 138 -105 143 0 5 15 27 33 50 112 141 166 217 155 217 -7
0 -56 -56 -108 -125 -52 -68 -97 -124 -100 -124 -3 0 -43 52 -90 115 -88 119
-107 141 -116 132 -3 -3 39 -63 93 -134 54 -70 97 -131 95 -136 -1 -4 -48 -67
-104 -138 l-102 -130 -254 2 -253 3 0 185 0 185 238 5 c131 3 231 8 223 12 -8
5 -115 9 -238 10 l-223 3 -1 165 0 165 251 3 c162 1 250 6 246 12 -10 16 -514
13 -520 -3z"/>
<path d="M1341 799 c-43 -17 -83 -52 -112 -97 l-29 -46 0 72 c0 41 -4 72 -10
72 -6 0 -10 -132 -10 -375 0 -243 4 -375 10 -375 6 0 10 62 10 166 l0 166 33
-48 c46 -70 103 -99 192 -99 58 0 78 5 116 27 84 49 124 136 123 268 0 130
-48 219 -139 261 -43 20 -143 25 -184 8z m205 -45 c55 -45 72 -71 91 -147 42
-173 -42 -337 -183 -353 -142 -17 -242 77 -252 238 -11 187 83 303 240 296 57
-3 72 -8 104 -34z"/>
<path d="M1903 791 c-45 -21 -80 -56 -99 -99 -11 -24 -12 -21 -13 41 -1 37 -5
67 -11 67 -6 0 -10 -100 -10 -280 0 -165 4 -280 9 -280 5 0 11 86 13 198 3
184 5 200 27 245 28 58 83 97 146 105 25 2 45 9 45 13 0 16 -64 9 -107 -10z"/>
<path d="M2175 791 c-94 -44 -148 -140 -149 -266 -1 -103 17 -164 66 -219 110
-125 338 -88 402 66 18 41 20 68 8 68 -5 0 -14 -18 -21 -40 -14 -46 -61 -104
-102 -125 -15 -8 -51 -17 -81 -21 -137 -16 -233 65 -253 214 l-7 52 242 0 243
0 -7 52 c-15 107 -71 190 -152 224 -47 20 -141 17 -189 -5z m194 -21 c67 -34
111 -100 126 -187 l7 -43 -232 0 -231 0 7 38 c15 88 72 169 139 198 46 20 139
17 184 -6z"/>
<path d="M2681 788 c-94 -47 -111 -168 -30 -217 29 -18 66 -29 228 -71 64 -17
111 -66 111 -118 0 -82 -64 -126 -185 -126 -124 -1 -190 44 -202 135 -3 22
-10 39 -14 39 -17 0 -9 -56 14 -100 32 -66 95 -95 202 -95 131 0 205 56 205
153 0 38 -5 50 -37 81 -33 32 -54 42 -159 70 -67 18 -135 41 -152 51 -57 35
-55 122 5 167 29 22 49 28 105 31 119 7 198 -41 198 -120 0 -18 5 -28 15 -28
18 0 11 50 -14 95 -39 72 -195 100 -290 53z"/>
<path d="M3192 789 c-71 -36 -98 -102 -69 -171 19 -46 49 -61 186 -97 124 -33
142 -41 170 -77 43 -55 19 -133 -52 -171 -51 -27 -180 -24 -235 5 -45 24 -81
82 -82 130 0 12 -4 22 -10 22 -18 0 -11 -54 13 -100 32 -66 95 -95 202 -95
131 0 205 56 205 153 0 38 -5 50 -37 81 -31 31 -54 41 -128 60 -145 38 -193
59 -210 91 -20 39 -19 69 4 106 27 44 76 64 156 64 105 0 158 -34 174 -112 9
-44 33 -50 25 -6 -17 92 -83 138 -199 138 -51 0 -81 -6 -113 -21z"/>
</g>
</svg>
